<?xml version="1.0" standalone="no"?>
<!DOCTYPE svg PUBLIC "-//W3C//DTD SVG 20010904//EN"
 "http://www.w3.org/TR/2001/REC-SVG-20010904/DTD/svg10.dtd">
<svg version="1.0" xmlns="http://www.w3.org/2000/svg"
 width="1624.000000pt" height="612.000000pt" viewBox="0 0 1624.000000 612.000000"
 preserveAspectRatio="xMidYMid meet">

<g transform="translate(0.000000,612.000000) scale(0.100000,-0.100000)"
fill="#000000" stroke="none">
<path d="M14913 5813 c9 -2 25 -2 35 0 9 3 1 5 -18 5 -19 0 -27 -2 -17 -5z"/>
<path d="M14773 5789 c11 -7 23 -7 35 0 14 9 11 10 -18 10 -29 0 -32 -1 -17
-10z"/>
<path d="M14680 5770 c0 -5 -10 -10 -22 -10 -21 0 -21 0 -2 -14 15 -11 20 -12
22 -2 1 7 15 17 30 23 l27 11 -27 1 c-16 1 -28 -3 -28 -9z"/>
<path d="M14566 5728 c3 -4 -2 -8 -10 -8 -19 0 -21 -25 -4 -36 7 -4 8 -3 4 4
-4 6 6 18 24 27 36 19 38 25 6 23 -14 -1 -22 -6 -20 -10z"/>
<path d="M14627 5704 c-10 -11 -9 -26 2 -20 5 4 11 1 13 -6 3 -7 7 -5 11 6 4
9 3 15 -2 11 -5 -3 -11 0 -13 6 -2 5 -7 7 -11 3z"/>
<path d="M14500 5692 c0 -5 11 -14 25 -20 24 -11 25 -10 15 8 -10 20 -40 28
-40 12z"/>
<path d="M14467 5675 c-9 -8 -22 -15 -29 -15 -8 0 -20 -9 -28 -20 -8 -11 -21
-20 -30 -20 -9 0 -22 -9 -30 -20 -8 -11 -20 -20 -27 -20 -7 0 -170 -157 -362
-349 -193 -193 -352 -345 -355 -338 -2 7 -5 4 -5 -6 -1 -23 -65 -87 -88 -88
-10 0 -13 -3 -6 -6 14 -5 -28 -53 -47 -53 -16 0 -60 -47 -60 -65 0 -8 -9 -15
-20 -15 -14 0 -20 -7 -20 -22 0 -19 -2 -20 -10 -8 -8 13 -10 12 -10 -3 0 -9
156 -173 355 -372 l355 -355 195 195 c108 107 191 195 185 195 -6 0 0 11 12
23 13 13 25 21 28 17 3 -4 20 8 38 27 18 18 28 33 22 33 -6 0 0 11 12 23 15
16 25 20 30 13 5 -7 8 -4 8 7 0 22 84 107 107 108 10 0 13 3 6 6 -8 3 11 28
47 63 36 35 55 60 47 63 -6 3 -1 6 13 7 l25 2 -25 7 c-14 4 -26 15 -28 25 -3
11 0 16 7 12 7 -4 11 1 11 13 0 11 -4 23 -10 26 -5 3 -10 1 -10 -4 0 -6 -8
-11 -17 -11 -15 0 -16 -2 -3 -10 13 -8 12 -10 -2 -10 -25 0 -22 15 9 46 26 26
26 28 8 35 -11 4 -16 8 -11 8 5 1 3 8 -4 16 -7 9 -10 18 -7 21 3 3 2 17 -3 29
-8 20 -5 25 12 31 21 6 21 7 -5 26 -15 11 -27 27 -27 37 0 9 -9 27 -19 38 -11
11 -18 29 -17 39 2 11 0 29 -5 41 -5 13 -4 25 2 28 5 4 7 11 3 16 -3 5 -11 6
-17 2 -7 -4 -6 0 2 10 12 15 11 17 -2 17 -9 0 -19 5 -22 10 -4 6 -1 9 6 8 19
-5 19 74 0 89 -9 6 -19 9 -23 7 -5 -3 -8 4 -8 15 0 12 6 21 13 21 8 0 7 3 -3
9 -8 6 -18 7 -23 4 -5 -3 -7 5 -5 18 2 13 9 23 16 22 6 -2 12 4 12 13 0 10 -6
14 -15 10 -9 -3 -15 0 -15 9 0 8 -5 15 -11 15 -5 0 -8 4 -5 8 2 4 -4 26 -14
47 -10 22 -19 32 -19 23 -1 -9 -5 -19 -10 -22 -5 -4 -7 3 -4 14 3 12 19 28 35
36 22 11 29 21 25 35 -3 10 -1 19 4 19 5 0 9 7 9 15 0 10 -10 15 -27 16 l-28
0 22 15 c12 9 19 22 16 30 -4 11 -9 12 -19 3 -8 -6 -11 -15 -8 -20 3 -5 -2 -9
-10 -9 -9 0 -16 4 -16 9 0 5 -13 19 -29 30 -26 19 -31 20 -44 6z m37 -40 c-4
-8 -1 -15 5 -15 6 0 11 5 11 10 0 6 6 5 14 -2 8 -7 12 -17 9 -22 -3 -4 -9 -2
-14 5 -8 13 -13 5 -10 -15 1 -5 -6 -3 -15 5 -16 12 -17 12 -12 -2 4 -9 1 -16
-8 -16 -7 0 -11 4 -9 8 3 3 -2 12 -10 19 -17 14 -20 30 -5 30 6 0 10 -7 10
-15 0 -8 5 -15 10 -15 6 0 9 3 9 8 -3 18 2 32 11 32 5 0 7 -7 4 -15z m68 -49
c7 4 8 2 4 -4 -11 -18 -26 -14 -25 6 0 10 3 12 6 4 2 -6 10 -9 15 -6z m168
-651 c10 -13 9 -15 -11 -14 -13 0 -18 3 -10 6 11 5 11 7 0 14 -8 5 -9 9 -3 9
6 0 17 -7 24 -15z m-27 -255 c-3 -11 -9 -17 -15 -14 -5 3 -4 12 3 20 16 19 18
18 12 -6z m54 4 c-3 -3 -12 -4 -19 -1 -8 3 -5 6 6 6 11 1 17 -2 13 -5z"/>
<path d="M14610 5661 c0 -6 5 -11 12 -11 6 0 3 -7 -8 -15 -18 -13 -18 -14 4
-8 14 3 22 12 20 21 -3 18 -28 29 -28 13z"/>
<path d="M14658 5652 c-3 -11 0 -19 8 -19 8 0 14 9 14 19 0 10 -4 18 -9 18 -5
0 -11 -8 -13 -18z"/>
<path d="M14630 5610 c-8 -5 -10 -10 -5 -10 6 0 17 5 25 10 8 5 11 10 5 10 -5
0 -17 -5 -25 -10z"/>
<path d="M14611 5524 c0 -11 3 -14 6 -6 3 7 2 16 -1 19 -3 4 -6 -2 -5 -13z"/>
<path d="M14581 5506 c-9 -11 -8 -15 5 -20 9 -4 19 -4 22 -1 3 3 0 5 -7 5 -8
0 -11 7 -7 15 7 19 2 19 -13 1z"/>
<path d="M14612 5456 c1 -10 8 -17 13 -17 15 1 12 24 -3 29 -9 3 -13 -2 -10
-12z"/>
<path d="M14655 5420 c4 -6 11 -8 16 -5 14 9 11 15 -7 15 -8 0 -12 -5 -9 -10z"/>
<path d="M14710 5119 c0 -16 4 -28 9 -25 8 5 3 56 -5 56 -2 0 -4 -14 -4 -31z"/>
<path d="M1300 5110 c0 -5 -18 -10 -40 -10 -22 0 -40 -4 -40 -10 0 -5 -13 -10
-30 -10 -16 0 -30 -4 -30 -10 0 -5 -9 -10 -20 -10 -11 0 -20 -4 -20 -10 0 -5
-9 -10 -20 -10 -11 0 -20 -4 -20 -10 0 -5 -8 -10 -18 -10 -10 0 -24 -9 -32
-20 -8 -11 -20 -20 -27 -20 -17 0 -143 -126 -143 -143 0 -7 -9 -19 -20 -27
-11 -8 -20 -22 -20 -32 0 -10 -4 -18 -10 -18 -5 0 -10 -9 -10 -20 0 -11 -4
-20 -10 -20 -5 0 -10 -9 -10 -20 0 -11 -4 -20 -10 -20 -5 0 -10 -13 -10 -30 0
-16 -4 -30 -10 -30 -5 0 -10 -13 -10 -29 0 -17 -4 -32 -9 -35 -8 -6 -14 -31
-27 -133 -3 -24 -10 -43 -15 -43 -5 0 -9 -22 -9 -49 0 -28 -4 -53 -10 -56 -5
-3 -10 -26 -10 -51 0 -24 -4 -44 -9 -44 -5 0 -12 -19 -15 -42 -15 -113 -19
-134 -27 -143 -5 -5 -9 -28 -9 -52 0 -24 -4 -43 -10 -43 -5 0 -10 -22 -10 -50
0 -27 -4 -50 -9 -50 -5 0 -12 -20 -15 -45 -3 -25 -9 -65 -12 -90 -3 -25 -10
-45 -15 -45 -5 0 -9 -17 -9 -38 0 -21 -4 -42 -9 -47 -5 -6 -11 -30 -14 -55 -3
-25 -11 -70 -17 -100 -6 -30 -14 -74 -17 -97 -3 -24 -9 -43 -13 -43 -4 0 -11
-20 -14 -45 -3 -25 -9 -65 -12 -90 -3 -25 -10 -45 -15 -45 -5 0 -9 -22 -9 -50
0 -27 -4 -50 -10 -50 -5 0 -10 -22 -10 -50 0 -27 -4 -50 -10 -50 -5 0 -10 -18
-10 -39 0 -22 -5 -43 -10 -46 -6 -3 -10 -26 -10 -51 0 -24 -4 -44 -10 -44 -5
0 -10 -18 -10 -40 0 -22 -4 -40 -10 -40 -5 0 -10 -22 -10 -49 0 -28 -4 -53
-10 -56 -5 -3 -10 -32 -10 -63 0 -41 -3 -53 -10 -42 -7 11 -10 7 -10 -18 0
-20 4 -31 10 -27 6 4 10 -9 10 -33 0 -32 7 -47 44 -85 24 -26 51 -47 60 -47 9
0 16 -4 16 -10 0 -7 675 -10 2006 -10 2132 0 2034 -2 2034 43 0 9 4 17 9 19 5
2 11 10 13 18 2 8 11 23 21 34 9 11 17 26 17 33 0 7 4 13 9 13 5 0 13 9 16 20
4 11 17 31 31 45 13 13 25 29 26 36 4 19 186 199 201 199 7 0 19 9 27 20 8 11
21 20 30 20 9 0 22 9 30 20 8 11 22 20 32 20 10 0 18 5 18 10 0 6 9 10 20 10
11 0 20 5 20 10 0 6 9 10 20 10 11 0 20 5 20 10 0 6 9 10 20 10 11 0 20 5 20
10 0 6 14 10 30 10 17 0 30 5 30 10 0 6 14 10 30 10 17 0 30 5 30 10 0 6 18
10 40 10 22 0 40 5 40 10 0 6 30 10 69 10 39 0 73 5 76 10 3 6 44 10 91 10 49
0 84 -4 84 -10 0 -6 30 -10 70 -10 40 0 70 -4 70 -10 0 -5 14 -10 30 -10 17 0
48 -5 69 -12 36 -11 40 -16 46 -58 3 -25 9 -101 13 -170 4 -69 10 -130 14
-136 4 -5 8 -51 9 -102 1 -51 6 -112 12 -137 l10 -45 1124 0 c961 0 1127 2
1139 14 8 9 14 34 14 60 0 25 5 46 10 46 6 0 10 18 10 40 0 22 4 40 9 40 8 0
11 15 27 133 3 26 10 47 15 47 5 0 9 22 9 49 0 28 5 53 10 56 6 3 10 26 10 51
0 24 5 44 10 44 6 0 10 18 10 39 0 22 5 43 10 46 6 3 10 26 10 51 0 24 5 44
10 44 6 0 10 23 10 50 0 28 5 50 10 50 6 0 10 23 10 50 0 28 4 50 9 50 5 0 12
21 15 48 16 117 18 132 26 132 8 0 10 15 26 133 3 26 10 47 14 47 5 0 11 24
14 53 9 94 18 142 27 147 4 3 9 26 10 52 2 26 6 45 11 42 4 -3 8 2 8 10 0 9 9
16 20 16 13 0 20 -7 20 -20 0 -11 5 -20 10 -20 6 0 10 -9 10 -20 0 -11 5 -20
10 -20 6 0 10 -9 10 -20 0 -11 5 -20 10 -20 6 0 10 -6 10 -13 0 -7 9 -23 20
-35 11 -12 20 -28 20 -37 0 -8 5 -15 10 -15 6 0 10 -9 10 -20 0 -11 5 -20 10
-20 6 0 10 -9 10 -20 0 -11 5 -20 10 -20 6 0 10 -9 10 -20 0 -11 5 -20 10 -20
6 0 10 -9 10 -20 0 -11 5 -20 10 -20 6 0 10 -6 10 -13 0 -7 9 -23 20 -35 11
-12 20 -28 20 -37 0 -8 5 -15 10 -15 6 0 10 -9 10 -20 0 -11 5 -20 10 -20 6 0
10 -9 10 -20 0 -11 5 -20 10 -20 6 0 10 -9 10 -20 0 -11 4 -20 8 -20 5 0 14
-16 22 -35 7 -19 17 -32 22 -29 4 3 8 -4 8 -15 0 -12 5 -21 10 -21 6 0 10 -9
10 -20 0 -11 5 -20 10 -20 6 0 10 -9 10 -20 0 -11 5 -20 10 -20 6 0 10 -9 10
-20 0 -11 5 -20 10 -20 6 0 10 -9 10 -20 0 -11 5 -20 10 -20 6 0 10 -9 10 -20
0 -11 5 -20 10 -20 6 0 10 -7 10 -16 0 -8 5 -12 10 -9 6 3 10 -3 10 -14 0 -12
5 -21 10 -21 6 0 10 -9 10 -20 0 -11 5 -20 10 -20 6 0 10 -9 10 -20 0 -11 5
-20 10 -20 6 0 10 -9 10 -20 0 -11 5 -20 10 -20 6 0 10 -9 10 -20 0 -11 3 -20
8 -20 4 0 18 -24 32 -54 13 -30 28 -52 32 -50 5 3 8 -4 8 -15 0 -12 5 -21 10
-21 6 0 10 -9 10 -20 0 -11 5 -20 10 -20 6 0 10 -9 10 -20 0 -11 5 -20 10 -20
6 0 10 -9 10 -20 0 -11 3 -20 8 -20 4 0 18 -24 32 -54 13 -30 28 -52 32 -50 5
3 8 -7 8 -21 0 -15 4 -24 10 -20 6 3 10 -3 10 -14 0 -12 5 -21 10 -21 6 0 10
-9 10 -20 0 -11 5 -20 10 -20 6 0 10 -7 10 -16 0 -8 5 -12 10 -9 6 3 10 1 10
-4 0 -8 107 -11 340 -11 220 0 340 4 340 10 0 6 23 10 50 10 28 0 50 5 50 10
0 6 16 10 36 10 21 0 33 4 29 10 -4 6 7 10 24 10 17 0 31 5 31 10 0 6 9 10 20
10 11 0 20 5 20 10 0 6 9 10 20 10 11 0 20 5 20 10 0 6 8 10 18 10 10 0 24 9
32 20 8 11 21 20 28 20 8 0 27 13 42 30 15 16 33 30 40 30 6 0 9 4 6 8 -2 4 8
13 23 20 15 7 34 25 42 40 8 15 26 39 41 54 16 14 28 32 28 40 0 7 9 20 20 28
11 8 20 22 20 32 0 10 5 18 10 18 6 0 10 10 10 23 0 18 2 19 10 7 8 -12 10
-10 11 10 1 14 1 28 0 33 0 4 3 7 9 7 5 0 10 9 10 19 0 11 5 23 10 26 6 3 10
22 10 41 0 19 5 34 10 34 6 0 10 18 10 40 0 22 5 40 10 40 6 0 10 18 10 40 0
22 5 40 10 40 6 0 10 23 10 50 0 28 5 50 10 50 6 0 10 23 10 50 0 28 5 50 10
50 6 0 10 23 10 50 0 28 5 50 10 50 6 0 10 18 10 40 0 22 5 40 10 40 6 0 10
23 10 50 0 28 5 50 10 50 6 0 10 23 10 50 0 28 5 50 10 50 6 0 10 23 10 50 0
28 5 50 10 50 6 0 10 18 10 39 0 22 5 43 10 46 6 3 10 27 10 53 0 34 3 43 10
32 7 -11 10 0 10 38 0 28 5 52 10 52 6 0 10 23 10 50 0 28 5 50 10 50 6 0 10
23 10 50 0 28 5 50 10 50 6 0 10 23 10 50 0 28 5 50 10 50 6 0 10 18 10 40 0
22 5 40 10 40 6 0 10 23 10 50 0 28 5 50 10 50 6 0 10 23 10 50 0 28 5 50 10
50 6 0 10 23 10 50 0 28 5 50 10 50 6 0 10 17 10 38 0 39 14 62 37 62 15 0
1063 -1045 1063 -1060 0 -6 -328 -339 -730 -740 -401 -401 -730 -732 -730
-735 0 -3 322 -5 715 -5 l715 0 380 380 c209 209 382 380 385 380 4 0 3 -4 0
-10 -3 -5 -1 -10 5 -10 5 0 132 -121 280 -270 148 -148 275 -271 282 -272 7
-2 25 -15 39 -30 15 -16 34 -28 43 -28 9 0 16 -4 16 -10 0 -5 9 -10 21 -10 11
0 17 -4 14 -10 -3 -5 1 -10 9 -10 9 0 16 -4 16 -10 0 -5 14 -10 31 -10 17 0
28 -4 24 -10 -4 -6 9 -10 32 -10 28 0 34 -3 23 -10 -11 -7 -4 -10 28 -10 23 0
42 -4 42 -10 0 -6 35 -11 83 -11 62 -1 74 -3 47 -9 -19 -4 204 -7 495 -6 l530
1 -435 5 -435 5 478 3 c262 1 477 6 477 10 0 4 -9 14 -19 22 -11 7 -18 17 -15
22 3 4 0 8 -6 8 -6 0 -18 6 -26 14 -11 11 -11 16 -1 19 7 3 4 6 -6 6 -25 1
-51 28 -34 34 7 3 4 6 -6 6 -24 1 -90 68 -74 75 7 2 1 5 -13 5 -20 1 -22 3
-10 11 12 8 10 10 -10 11 -14 0 -20 3 -13 5 16 7 -71 94 -94 94 -15 0 -16 2
-3 10 13 8 12 10 -3 10 -10 0 -25 7 -33 15 -9 8 -11 15 -4 15 6 0 -14 25 -45
55 -30 30 -63 55 -72 55 -15 0 -16 2 -3 10 12 8 10 10 -10 11 -14 0 -20 3 -13
5 16 7 -111 134 -134 135 -10 0 -13 3 -6 5 14 6 -2090 2114 -2110 2114 -7 0
-19 9 -27 20 -8 11 -21 20 -30 20 -9 0 -22 9 -30 20 -8 11 -22 20 -32 20 -10
0 -18 5 -18 10 0 6 -14 10 -31 10 -17 0 -28 4 -24 10 4 6 -8 10 -29 10 -20 0
-36 5 -36 10 0 6 -28 10 -62 11 -45 0 -57 3 -43 9 11 5 -385 9 -917 9 -744 1
-938 -2 -938 -11 0 -9 -4 -8 -10 2 -7 11 -10 0 -10 -37 0 -29 -4 -53 -10 -53
-5 0 -10 -22 -10 -50 0 -27 -4 -50 -10 -50 -5 0 -10 -22 -10 -50 0 -27 -4 -50
-10 -50 -5 0 -10 -24 -10 -52 0 -38 -3 -49 -10 -38 -7 11 -10 -1 -10 -40 0
-39 -3 -51 -10 -40 -7 11 -10 -4 -10 -50 0 -46 -3 -61 -10 -50 -7 11 -10 -4
-10 -48 0 -40 -4 -61 -10 -57 -6 4 -10 -16 -10 -52 0 -41 -3 -54 -10 -43 -7
11 -10 0 -10 -37 0 -29 -4 -53 -10 -53 -5 0 -10 -21 -10 -46 0 -27 -4 -43 -10
-39 -6 4 -10 -13 -10 -44 0 -28 -4 -51 -8 -51 -5 0 -9 -21 -11 -47 -1 -27 -6
-50 -12 -51 -5 -2 -9 -26 -9 -53 0 -27 -4 -49 -10 -49 -5 0 -10 -21 -10 -46 0
-27 -4 -43 -10 -39 -6 4 -10 -14 -10 -47 0 -38 -3 -49 -10 -38 -7 11 -10 -3
-10 -47 0 -35 -4 -63 -10 -63 -5 0 -10 -21 -10 -46 0 -26 -6 -52 -14 -60 -17
-16 -46 -9 -46 12 0 8 -5 14 -11 14 -5 0 -8 4 -4 9 3 5 -2 16 -10 24 -8 9 -15
23 -15 31 0 9 -4 16 -10 16 -5 0 -10 12 -10 26 0 14 -4 23 -10 19 -6 -4 -10 5
-10 20 0 15 -4 24 -10 20 -5 -3 -10 3 -10 14 0 12 -4 21 -10 21 -5 0 -10 9
-10 20 0 11 -4 20 -10 20 -5 0 -10 9 -10 20 0 11 -4 20 -10 20 -5 0 -10 9 -10
20 0 11 -4 20 -10 20 -5 0 -10 9 -10 20 0 11 -4 20 -10 20 -5 0 -10 9 -10 20
0 11 -4 20 -10 20 -5 0 -10 9 -10 20 0 11 -4 20 -10 20 -5 0 -10 9 -10 20 0
11 -4 20 -10 20 -5 0 -10 9 -10 20 0 11 -4 20 -10 20 -5 0 -10 9 -10 20 0 11
-4 20 -10 20 -5 0 -10 9 -10 20 0 11 -4 20 -10 20 -5 0 -10 9 -10 20 0 11 -4
20 -10 20 -5 0 -10 9 -10 20 0 11 -4 20 -10 20 -5 0 -10 9 -10 20 0 11 -4 20
-10 20 -5 0 -10 9 -10 20 0 11 -4 20 -10 20 -5 0 -10 9 -10 20 0 11 -4 20 -10
20 -5 0 -10 9 -10 20 0 11 -4 20 -10 20 -5 0 -10 9 -10 20 0 11 -4 20 -10 20
-5 0 -10 7 -10 16 0 9 -5 12 -12 8 -6 -4 -9 -3 -5 2 7 12 -27 86 -36 77 -4 -3
-7 3 -7 15 0 12 -4 22 -10 22 -5 0 -10 15 -10 33 0 24 -3 28 -10 17 -8 -12
-10 -9 -10 13 0 16 -4 26 -10 22 -5 -3 -10 3 -10 14 0 12 -4 21 -10 21 -5 0
-10 9 -10 20 0 11 -4 20 -10 20 -5 0 -10 9 -10 20 0 11 -4 20 -10 20 -5 0 -10
9 -10 20 0 11 -4 20 -10 20 -5 0 -10 9 -10 20 0 11 -4 20 -10 20 -5 0 -10 9
-10 20 0 11 -4 20 -10 20 -5 0 -10 9 -10 20 0 11 -4 20 -10 20 -5 0 -10 9 -10
20 0 11 -4 20 -10 20 -5 0 -10 9 -10 20 0 11 -4 20 -10 20 -5 0 -10 9 -10 20
0 11 -4 20 -10 20 -5 0 -10 9 -10 20 0 11 -4 20 -10 20 -5 0 -10 7 -10 16 0
43 -7 44 -444 44 -271 0 -416 -3 -416 -10 0 -5 -22 -10 -50 -10 -27 0 -50 -4
-50 -10 0 -5 -13 -10 -30 -10 -16 0 -30 -4 -30 -10 0 -5 -9 -10 -20 -10 -11 0
-20 -4 -20 -10 0 -5 -9 -10 -20 -10 -11 0 -20 -4 -20 -10 0 -5 -8 -10 -18 -10
-10 0 -24 -9 -32 -20 -8 -11 -20 -20 -27 -20 -17 0 -183 -166 -183 -183 0 -7
-9 -19 -20 -27 -11 -8 -20 -22 -20 -32 0 -10 -4 -18 -10 -18 -5 0 -10 -9 -10
-20 0 -11 -4 -20 -10 -20 -5 0 -10 -9 -10 -20 0 -11 -4 -20 -10 -20 -5 0 -10
-13 -10 -30 0 -16 -4 -30 -9 -30 -5 0 -12 -21 -15 -47 -16 -118 -19 -133 -27
-133 -5 0 -9 -22 -9 -50 0 -27 -4 -50 -10 -50 -5 0 -10 -18 -10 -40 0 -22 -4
-40 -8 -40 -5 0 -9 -21 -11 -47 -1 -27 -6 -49 -12 -51 -5 -2 -9 -26 -9 -53 0
-27 -4 -49 -10 -49 -5 0 -10 -22 -10 -50 0 -27 -4 -50 -10 -50 -5 0 -10 -18
-10 -40 0 -22 -4 -40 -10 -40 -5 0 -10 -20 -10 -44 0 -25 -5 -48 -10 -51 -6
-3 -10 -23 -10 -44 0 -20 -4 -41 -9 -47 -5 -5 -12 -31 -15 -59 -14 -113 -18
-135 -26 -135 -4 0 -11 -20 -14 -45 -3 -25 -9 -65 -12 -90 -3 -25 -10 -45 -15
-45 -5 0 -9 -22 -9 -50 0 -27 -4 -50 -10 -50 -5 0 -10 -22 -10 -50 0 -27 -4
-50 -10 -50 -5 0 -10 -18 -10 -39 0 -22 -5 -43 -10 -46 -6 -3 -10 -26 -10 -51
0 -24 -4 -44 -9 -44 -5 0 -11 -19 -14 -42 -3 -24 -11 -68 -17 -98 -6 -30 -13
-71 -16 -90 -3 -19 -9 -44 -14 -55 -9 -20 -16 -57 -27 -129 -5 -37 -28 -74
-38 -64 -3 3 -6 17 -7 31 -1 15 -6 27 -10 27 -4 0 -8 18 -8 40 0 22 -4 40 -10
40 -5 0 -10 23 -10 50 0 28 -4 50 -10 50 -5 0 -10 22 -10 49 0 27 -4 51 -9 53
-6 2 -11 24 -12 51 -2 26 -6 47 -11 47 -4 0 -8 18 -8 40 0 22 -4 40 -10 40 -5
0 -10 23 -10 50 0 28 -4 50 -10 50 -5 0 -10 23 -10 50 0 28 -4 50 -10 50 -5 0
-10 23 -10 50 0 28 -4 50 -10 50 -5 0 -10 18 -10 40 0 22 -4 40 -10 40 -5 0
-10 18 -10 40 0 22 -4 40 -10 40 -5 0 -10 23 -10 50 0 28 -4 50 -10 50 -5 0
-10 23 -10 50 0 28 -4 50 -10 50 -5 0 -10 23 -10 50 0 28 -4 50 -10 50 -5 0
-10 18 -10 40 0 22 -4 40 -8 40 -5 0 -9 21 -11 47 -1 26 -6 50 -11 53 -5 3
-10 27 -11 53 -2 26 -6 47 -11 47 -4 0 -8 23 -8 50 0 28 -4 50 -10 50 -5 0
-10 18 -10 40 0 22 -4 40 -10 40 -5 0 -10 20 -10 44 0 25 -4 48 -10 51 -5 3
-10 24 -10 46 0 21 -4 39 -10 39 -5 0 -10 23 -10 50 0 28 -4 50 -10 50 -5 0
-10 25 -10 55 0 30 -4 55 -10 55 -5 0 -10 18 -10 39 0 22 -4 43 -10 46 -6 3
-10 24 -10 46 0 21 -4 39 -10 39 -5 0 -10 23 -10 50 0 28 -4 50 -10 50 -5 0
-10 23 -10 50 0 28 -4 50 -10 50 -5 0 -10 23 -10 50 0 28 -4 50 -10 50 -5 0
-10 16 -10 36 0 67 27 64 -554 64 -344 0 -526 -3 -526 -10 0 -5 -22 -10 -50
-10 -27 0 -50 -4 -50 -10 0 -5 -13 -10 -30 -10 -16 0 -30 -4 -30 -10 0 -5 -13
-10 -30 -10 -16 0 -30 -4 -30 -10 0 -5 -9 -10 -20 -10 -11 0 -20 -4 -20 -10 0
-5 -9 -10 -20 -10 -11 0 -20 -4 -20 -10 0 -5 -8 -10 -18 -10 -10 0 -24 -9 -32
-20 -8 -11 -21 -20 -30 -20 -9 0 -22 -9 -30 -20 -8 -11 -20 -20 -27 -20 -17 0
-163 -146 -163 -163 0 -7 -9 -19 -20 -27 -11 -8 -20 -21 -20 -30 0 -9 -9 -22
-20 -30 -11 -8 -20 -21 -20 -30 0 -9 -9 -22 -20 -30 -11 -8 -20 -21 -20 -29 0
-7 -8 -21 -17 -30 -10 -9 -19 -23 -21 -31 -2 -8 -8 -16 -13 -18 -5 -2 -9 -11
-9 -21 0 -9 -9 -23 -20 -31 -11 -8 -20 -21 -20 -30 0 -9 -9 -22 -20 -30 -11
-8 -20 -21 -20 -30 0 -9 -9 -22 -20 -30 -11 -8 -20 -22 -20 -32 0 -10 -4 -18
-10 -18 -5 0 -10 -8 -10 -18 0 -10 -9 -24 -20 -32 -11 -8 -20 -21 -20 -30 0
-9 -9 -22 -20 -30 -11 -8 -20 -21 -20 -30 0 -9 -9 -22 -20 -30 -11 -8 -20 -21
-20 -30 0 -9 -9 -22 -20 -30 -11 -8 -20 -22 -20 -32 0 -10 -4 -18 -10 -18 -5
0 -10 -8 -10 -18 0 -10 -9 -24 -20 -32 -11 -8 -20 -21 -20 -30 0 -9 -9 -22
-20 -30 -11 -8 -20 -21 -20 -30 0 -9 -9 -22 -20 -30 -11 -8 -20 -20 -20 -28 0
-7 -9 -22 -20 -34 -11 -12 -20 -28 -20 -35 0 -7 -4 -13 -10 -13 -5 0 -10 -8
-10 -18 0 -10 -9 -24 -20 -32 -11 -8 -20 -21 -20 -30 0 -9 -9 -22 -20 -30 -11
-8 -20 -21 -20 -30 0 -9 -9 -22 -20 -30 -11 -8 -20 -20 -20 -28 0 -7 -9 -22
-20 -34 -11 -12 -20 -28 -20 -35 0 -7 -4 -13 -10 -13 -5 0 -10 -8 -10 -18 0
-10 -9 -24 -20 -32 -11 -8 -20 -21 -20 -30 0 -9 -9 -22 -20 -30 -11 -8 -20
-22 -20 -32 0 -10 -4 -18 -10 -18 -5 0 -10 -9 -10 -21 0 -11 -4 -17 -10 -14
-5 3 -10 -1 -10 -9 0 -9 -4 -16 -10 -16 -5 0 -10 -8 -10 -18 0 -10 -9 -24 -20
-32 -11 -8 -20 -21 -20 -30 0 -9 -9 -22 -20 -30 -11 -8 -20 -21 -20 -30 0 -9
-9 -22 -20 -30 -11 -8 -20 -22 -20 -32 0 -10 -4 -18 -10 -18 -5 0 -10 -9 -10
-21 0 -11 -4 -17 -10 -14 -5 3 -10 -1 -10 -9 0 -9 -4 -16 -10 -16 -5 0 -10 -8
-10 -18 0 -10 -9 -24 -20 -32 -11 -8 -20 -21 -20 -30 0 -9 -9 -22 -20 -30 -11
-8 -20 -21 -20 -30 0 -9 -9 -22 -20 -30 -11 -8 -20 -22 -20 -32 0 -10 -4 -18
-10 -18 -5 0 -10 -8 -10 -18 0 -10 -9 -24 -20 -32 -11 -8 -20 -21 -20 -30 0
-9 -9 -22 -20 -30 -11 -8 -20 -21 -20 -30 0 -9 -9 -22 -20 -30 -11 -8 -20 -22
-20 -32 0 -10 -4 -18 -10 -18 -5 0 -10 -9 -10 -21 0 -11 -4 -17 -10 -14 -5 3
-10 -1 -10 -9 0 -9 -4 -16 -10 -16 -5 0 -10 -8 -10 -18 0 -10 -9 -24 -20 -32
-11 -8 -20 -20 -20 -28 0 -13 -23 -42 -34 -42 -10 0 -7 98 3 102 6 2 11 24 12
51 2 26 6 47 11 47 4 0 8 18 8 40 0 22 5 40 10 40 6 0 10 23 10 50 0 28 5 50
10 50 6 0 10 23 10 50 0 28 5 50 10 50 6 0 10 14 10 32 0 17 5 46 12 65 23 65
69 61 -907 62 -484 0 -886 1 -892 1 -7 0 -13 9 -13 20 0 11 5 20 10 20 6 0 10
18 10 39 0 22 5 43 10 46 5 3 10 22 10 41 0 19 4 34 8 34 5 0 9 21 11 47 1 26
6 50 10 53 5 3 11 28 15 55 13 118 19 145 27 145 5 0 9 18 9 40 0 22 4 40 8
40 5 0 9 21 11 48 1 26 6 49 12 50 5 2 9 26 9 53 0 27 5 49 10 49 6 0 10 23
10 50 0 28 5 50 10 50 6 0 10 18 10 40 0 22 5 40 10 40 6 0 10 18 10 40 0 25
5 40 13 40 8 0 7 4 -3 10 -8 5 -10 10 -4 10 7 0 14 19 17 43 3 23 11 67 17 97
6 30 14 74 17 98 3 23 8 42 12 42 4 0 8 21 10 47 1 26 6 50 10 53 8 5 13 29
27 138 3 23 10 42 15 42 5 0 9 23 9 50 0 28 5 50 10 50 6 0 10 23 10 50 0 28
4 50 9 50 5 0 11 19 15 43 9 72 23 143 26 132 2 -5 7 13 11 40 5 28 11 67 15
88 l6 37 -361 0 c-234 0 -361 -4 -361 -10z m4308 -915 c7 -14 12 -43 12 -65 0
-21 4 -50 9 -64 6 -13 11 -52 12 -85 1 -34 6 -61 11 -61 4 0 8 -29 8 -64 0
-36 5 -68 10 -71 6 -3 10 -35 10 -70 0 -35 4 -66 9 -69 8 -5 14 -44 27 -188 4
-38 11 -68 15 -68 5 0 9 -11 9 -25 0 -25 -1 -25 -80 -25 -51 0 -80 4 -80 11 0
10 -34 9 -212 -7 -38 -3 -68 -10 -68 -15 0 -5 -15 -9 -34 -9 -19 0 -38 -4 -41
-10 -3 -5 -15 -10 -26 -10 -10 0 -19 -6 -19 -12 0 -9 -4 -8 -10 2 -5 8 -10 11
-10 5 0 -11 -46 -35 -67 -35 -7 0 -13 -4 -13 -10 0 -5 -9 -10 -21 -10 -13 0
-19 5 -15 13 3 6 9 20 12 30 4 9 10 17 15 17 5 0 9 9 9 20 0 11 5 20 10 20 6
0 10 9 10 20 0 11 4 20 9 20 5 0 14 14 21 30 7 17 16 30 21 30 5 0 9 9 9 20 0
11 5 20 10 20 6 0 10 9 10 20 0 11 5 20 10 20 6 0 10 8 10 18 0 10 9 24 20 32
11 8 20 22 20 32 0 10 5 18 10 18 6 0 10 9 10 20 0 11 5 20 10 20 6 0 10 9 10
20 0 11 5 20 10 20 6 0 10 8 10 18 0 10 9 24 20 32 11 8 20 22 20 32 0 10 5
18 10 18 6 0 10 9 10 20 0 11 5 20 10 20 6 0 10 8 10 18 0 10 9 24 20 32 11 8
20 22 20 32 0 10 5 18 10 18 6 0 10 9 10 20 0 11 5 20 10 20 6 0 10 9 10 19 0
11 4 21 9 23 5 2 11 10 13 18 2 8 11 22 21 31 9 9 17 24 17 33 0 9 5 16 10 16
6 0 10 9 10 20 0 11 5 20 10 20 6 0 10 10 10 23 0 18 2 19 10 7 8 -12 10 -11
10 8 0 29 14 28 28 -3z m-2343 -1885 c3 -5 -1 -10 -9 -10 -9 0 -16 5 -16 10 0
6 4 10 9 10 6 0 13 -4 16 -10z"/>
<path d="M14794 4902 c23 -26 22 -26 30 -6 3 9 2 12 -5 9 -5 -4 -18 -1 -27 6
-13 11 -12 8 2 -9z"/>
<path d="M14758 4863 c-5 -19 -3 -21 18 -13 25 10 28 7 24 -24 -2 -18 -1 -18
15 -3 9 9 14 21 11 26 -4 5 -3 11 1 14 5 2 2 2 -6 0 -7 -2 -21 2 -29 9 -12 10
-14 10 -8 1 4 -7 3 -13 -3 -13 -5 0 -11 6 -13 12 -3 7 -7 3 -10 -9z"/>
<path d="M14830 4821 c0 -6 5 -13 10 -16 6 -3 10 1 10 9 0 9 -4 16 -10 16 -5
0 -10 -4 -10 -9z"/>
<path d="M14877 4768 c-32 -33 -56 -62 -53 -65 2 -3 34 25 70 61 37 36 61 65
54 65 -7 -1 -39 -28 -71 -61z"/>
<path d="M14797 4769 c7 -7 15 -10 18 -7 3 3 -2 9 -12 12 -14 6 -15 5 -6 -5z"/>
<path d="M8100 1450 c0 -5 -13 -10 -30 -10 -16 0 -30 -4 -30 -10 0 -5 -13 -10
-30 -10 -16 0 -30 -4 -30 -10 0 -5 -8 -10 -18 -10 -10 0 -24 -9 -32 -20 -8
-11 -20 -20 -27 -20 -19 0 -143 -126 -143 -145 0 -8 -4 -15 -10 -15 -5 0 -10
-9 -10 -20 0 -11 -4 -20 -10 -20 -5 0 -10 -9 -10 -20 0 -11 -4 -20 -10 -20 -5
0 -10 -9 -10 -20 0 -11 -4 -20 -10 -20 -5 0 -10 -18 -10 -40 0 -22 -4 -40 -10
-40 -6 0 -10 -50 -10 -130 0 -80 4 -130 10 -130 6 0 10 -18 10 -40 0 -22 5
-40 10 -40 6 0 10 -13 10 -30 0 -16 5 -30 10 -30 6 0 10 -8 10 -18 0 -10 9
-24 20 -32 11 -8 20 -20 20 -27 0 -19 146 -163 165 -163 8 0 15 -4 15 -10 0
-5 9 -10 20 -10 11 0 20 -4 20 -10 0 -5 9 -10 20 -10 11 0 20 -4 20 -10 0 -5
14 -10 30 -10 17 0 30 -4 30 -10 0 -6 27 -10 60 -10 33 0 60 -4 60 -10 0 -5
23 -10 50 -10 28 0 50 5 50 10 0 6 27 10 60 10 33 0 60 4 60 10 0 6 14 10 30
10 17 0 30 5 30 10 0 6 9 10 20 10 11 0 20 5 20 10 0 6 9 10 20 10 11 0 20 5
20 10 0 6 7 10 15 10 18 0 165 144 165 161 0 6 9 20 21 30 l21 18 -26 26 c-14
14 -30 25 -37 25 -6 0 -20 9 -30 21 l-18 21 -26 -26 c-14 -14 -25 -30 -25 -36
0 -15 -107 -120 -123 -120 -7 0 -19 -9 -27 -20 -8 -12 -26 -20 -42 -20 -15 0
-28 -4 -28 -10 0 -5 -18 -10 -40 -10 -22 0 -40 -4 -40 -10 0 -6 -30 -10 -70
-10 -40 0 -70 4 -70 10 0 6 -18 10 -40 10 -22 0 -40 5 -40 10 0 6 -13 10 -28
10 -16 0 -34 8 -42 20 -8 11 -20 20 -27 20 -19 0 -123 106 -123 125 0 8 -4 15
-10 15 -5 0 -10 9 -10 20 0 11 -4 20 -10 20 -5 0 -10 9 -10 20 0 11 -4 20 -10
20 -5 0 -10 18 -10 40 0 22 -4 40 -10 40 -6 0 -10 33 -10 80 0 47 4 80 10 80
6 0 10 18 10 40 0 22 5 40 10 40 6 0 10 14 10 30 0 17 5 30 10 30 6 0 10 8 10
18 0 10 9 24 20 32 11 8 20 20 20 28 0 17 65 82 82 82 8 0 20 9 28 20 8 11 22
20 32 20 10 0 18 5 18 10 0 6 14 10 30 10 17 0 30 5 30 10 0 6 50 10 130 10
80 0 130 -4 130 -10 0 -5 14 -10 30 -10 17 0 30 -4 30 -10 0 -5 8 -10 18 -10
10 0 24 -9 32 -20 8 -11 20 -20 28 -20 15 0 82 -65 82 -80 0 -16 26 -40 42
-40 8 0 20 9 28 20 8 11 20 20 28 20 7 0 20 6 28 14 16 17 19 46 4 46 -5 0
-10 7 -10 15 0 20 -105 125 -125 125 -8 0 -15 5 -15 10 0 6 -9 10 -20 10 -11
0 -20 5 -20 10 0 6 -9 10 -20 10 -11 0 -20 5 -20 10 0 6 -9 10 -20 10 -11 0
-20 5 -20 10 0 6 -13 10 -30 10 -16 0 -30 5 -30 10 0 6 -57 10 -150 10 -93 0
-150 -4 -150 -10z"/>
<path d="M14100 1450 c0 -5 -13 -10 -30 -10 -16 0 -30 -4 -30 -10 0 -5 -13
-10 -28 -10 -16 0 -34 -8 -42 -20 -8 -11 -20 -20 -27 -20 -19 0 -103 -86 -103
-105 0 -8 -4 -15 -10 -15 -5 0 -10 -18 -10 -40 0 -22 -4 -40 -10 -40 -5 0 -10
-13 -10 -30 0 -16 5 -30 10 -30 6 0 10 -17 10 -38 0 -26 6 -42 20 -52 11 -8
20 -20 20 -28 0 -17 25 -42 42 -42 8 0 20 -9 28 -20 8 -11 22 -20 32 -20 10 0
18 -4 18 -10 0 -5 14 -10 30 -10 17 0 30 -4 30 -10 0 -5 23 -10 50 -10 28 0
50 -4 50 -10 0 -6 37 -10 90 -10 53 0 90 -4 90 -10 0 -6 40 -10 100 -10 60 0
100 -4 100 -10 0 -5 14 -10 30 -10 17 0 30 -4 30 -10 0 -5 7 -10 15 -10 9 0
36 -20 60 -45 l45 -44 0 -76 c0 -43 -4 -75 -10 -75 -5 0 -10 -7 -10 -15 0 -20
-65 -85 -85 -85 -8 0 -15 -4 -15 -10 0 -5 -13 -10 -30 -10 -16 0 -30 -4 -30
-10 0 -5 -13 -10 -30 -10 -16 0 -30 -4 -30 -10 0 -6 -40 -10 -100 -10 -60 0
-100 4 -100 10 0 6 -22 10 -50 10 -27 0 -50 5 -50 10 0 6 -13 10 -30 10 -16 0
-30 5 -30 10 0 6 -13 10 -30 10 -16 0 -30 5 -30 10 0 6 -8 10 -18 10 -10 0
-24 9 -32 20 -8 11 -22 20 -32 20 -10 0 -18 5 -18 10 0 6 -8 10 -18 10 -10 0
-24 9 -32 20 -19 26 -70 28 -70 2 0 -10 -9 -24 -20 -32 -11 -8 -20 -22 -20
-31 0 -10 -6 -19 -12 -21 -16 -6 14 -38 34 -38 8 0 20 -9 28 -20 8 -11 22 -20
32 -20 10 0 18 -4 18 -10 0 -5 9 -10 20 -10 11 0 20 -4 20 -10 0 -5 9 -10 20
-10 11 0 20 -4 20 -10 0 -5 9 -10 20 -10 11 0 20 -4 20 -10 0 -5 14 -10 30
-10 17 0 30 -4 30 -10 0 -5 18 -10 40 -10 22 0 40 -4 40 -10 0 -6 30 -10 70
-10 40 0 70 -4 70 -10 0 -6 30 -10 70 -10 40 0 70 4 70 10 0 6 27 10 60 10 33
0 60 4 60 10 0 6 14 10 30 10 17 0 30 5 30 10 0 6 13 10 28 10 16 0 34 8 42
20 8 11 20 20 27 20 19 0 123 106 123 125 0 8 5 15 10 15 6 0 10 14 10 30 0
17 5 30 10 30 6 0 10 33 10 80 0 47 -4 80 -10 80 -5 0 -10 13 -10 28 0 16 -8
34 -20 42 -11 8 -20 20 -20 28 0 17 -45 62 -62 62 -8 0 -20 9 -28 20 -8 11
-22 20 -32 20 -10 0 -18 5 -18 10 0 6 -13 10 -30 10 -16 0 -30 5 -30 10 0 6
-18 10 -40 10 -22 0 -40 5 -40 10 0 6 -40 10 -100 10 -60 0 -100 4 -100 10 0
6 -37 10 -90 10 -53 0 -90 4 -90 10 0 6 -18 10 -40 10 -22 0 -40 5 -40 10 0 6
-7 10 -15 10 -9 0 -31 16 -50 35 -30 29 -35 41 -35 80 0 25 5 45 10 45 6 0 10
7 10 15 0 20 45 65 65 65 8 0 15 5 15 10 0 6 14 10 30 10 17 0 30 5 30 10 0 6
26 10 59 10 38 0 61 5 65 13 5 10 7 10 12 0 4 -9 31 -13 85 -13 46 0 79 -4 79
-10 0 -5 14 -10 30 -10 17 0 30 -4 30 -10 0 -5 14 -10 30 -10 17 0 30 -4 30
-10 0 -5 9 -10 20 -10 11 0 20 -4 20 -10 0 -5 8 -10 18 -10 10 0 24 -9 32 -20
8 -11 21 -20 29 -20 7 0 22 -9 32 -21 l18 -21 26 26 c14 14 25 30 25 37 0 6 9
20 21 30 l21 18 -26 26 c-14 14 -32 25 -41 25 -8 0 -15 5 -15 10 0 6 -8 10
-18 10 -10 0 -24 9 -32 20 -8 12 -26 20 -42 20 -15 0 -28 5 -28 10 0 6 -9 10
-20 10 -11 0 -20 5 -20 10 0 6 -13 10 -30 10 -16 0 -30 5 -30 10 0 6 -18 10
-40 10 -22 0 -40 5 -40 10 0 6 -60 10 -160 10 -100 0 -160 -4 -160 -10z"/>
<path d="M9403 1415 c-13 -13 -23 -36 -23 -50 0 -14 -4 -25 -10 -25 -5 0 -10
-9 -10 -20 0 -11 -4 -20 -10 -20 -5 0 -10 -9 -10 -20 0 -11 -4 -20 -10 -20 -5
0 -10 -9 -10 -20 0 -11 -4 -20 -10 -20 -5 0 -10 -9 -10 -20 0 -11 -4 -20 -10
-20 -5 0 -10 -9 -10 -20 0 -11 -4 -20 -10 -20 -5 0 -10 -9 -10 -20 0 -11 -4
-20 -10 -20 -5 0 -10 -9 -10 -20 0 -11 -4 -20 -10 -20 -5 0 -10 -9 -10 -20 0
-11 -4 -20 -10 -20 -5 0 -10 -9 -10 -20 0 -11 -4 -20 -10 -20 -5 0 -10 -9 -10
-20 0 -11 -4 -20 -10 -20 -5 0 -10 -9 -10 -20 0 -11 -4 -20 -10 -20 -5 0 -10
-9 -10 -20 0 -11 -4 -20 -10 -20 -5 0 -10 -9 -10 -20 0 -11 -4 -20 -10 -20 -5
0 -10 -9 -10 -20 0 -11 -4 -20 -10 -20 -5 0 -10 -9 -10 -20 0 -11 -4 -20 -10
-20 -5 0 -10 -9 -10 -20 0 -11 -4 -20 -10 -20 -5 0 -10 -9 -10 -20 0 -11 -4
-20 -10 -20 -5 0 -10 -9 -10 -20 0 -11 -4 -20 -10 -20 -5 0 -10 -9 -10 -20 0
-11 -4 -20 -10 -20 -5 0 -10 -9 -10 -20 0 -11 -4 -20 -10 -20 -5 0 -10 -9 -10
-20 0 -11 -4 -20 -10 -20 -5 0 -10 -9 -10 -20 0 -11 -4 -20 -10 -20 -5 0 -10
-9 -10 -20 0 -11 -4 -20 -10 -20 -5 0 -10 -13 -10 -30 0 -16 -4 -30 -10 -30
-5 0 -10 -9 -10 -20 0 -11 -4 -20 -10 -20 -5 0 -10 -4 -10 -10 0 -6 33 -10 80
-10 73 0 80 2 80 20 0 11 5 20 10 20 6 0 10 9 10 20 0 11 5 20 10 20 6 0 10 9
10 20 0 11 5 20 10 20 6 0 10 9 10 20 0 11 5 20 10 20 6 0 10 9 10 20 0 11 5
20 10 20 6 0 10 9 10 20 0 11 5 20 10 20 6 0 10 7 10 16 0 42 13 44 344 44
309 0 316 0 316 -20 0 -11 5 -20 10 -20 6 0 10 -9 10 -20 0 -11 5 -20 10 -20
6 0 10 -9 10 -20 0 -11 5 -20 10 -20 6 0 10 -9 10 -20 0 -11 5 -20 10 -20 6 0
10 -9 10 -20 0 -11 5 -20 10 -20 6 0 10 -9 10 -20 0 -11 5 -20 10 -20 6 0 10
-7 10 -16 0 -33 26 -44 104 -44 44 0 76 4 76 10 0 6 -4 10 -10 10 -5 0 -10 9
-10 20 0 11 -4 20 -10 20 -5 0 -10 9 -10 20 0 11 -4 20 -10 20 -5 0 -10 9 -10
20 0 11 -4 20 -10 20 -5 0 -10 9 -10 20 0 11 -4 20 -10 20 -5 0 -10 9 -10 20
0 11 -4 20 -10 20 -5 0 -10 9 -10 20 0 11 -4 20 -10 20 -5 0 -10 9 -10 20 0
11 -4 20 -10 20 -5 0 -10 9 -10 20 0 11 -4 20 -10 20 -5 0 -10 9 -10 20 0 11
-4 20 -10 20 -5 0 -10 9 -10 20 0 11 -4 20 -10 20 -5 0 -10 9 -10 20 0 11 -4
20 -10 20 -5 0 -10 9 -10 20 0 11 -4 20 -10 20 -5 0 -10 9 -10 20 0 11 -4 20
-10 20 -5 0 -10 9 -10 20 0 11 -4 20 -10 20 -5 0 -10 9 -10 20 0 11 -4 20 -10
20 -5 0 -10 9 -10 20 0 11 -4 20 -10 20 -5 0 -10 9 -10 20 0 11 -4 20 -10 20
-5 0 -10 9 -10 20 0 11 -4 20 -10 20 -5 0 -10 9 -10 20 0 11 -4 20 -10 20 -5
0 -10 9 -10 20 0 11 -4 20 -10 20 -5 0 -10 9 -10 20 0 11 -4 20 -10 20 -5 0
-10 9 -10 20 0 11 -4 20 -10 20 -5 0 -10 9 -10 20 0 11 -4 20 -10 20 -5 0 -10
9 -10 20 0 11 -4 20 -10 20 -5 0 -10 9 -10 20 0 11 -4 20 -10 20 -5 0 -10 9
-10 20 0 11 -4 20 -10 20 -5 0 -10 9 -10 20 0 11 -4 20 -10 20 -5 0 -10 9 -10
20 0 18 -6 20 -57 19 -48 0 -62 -4 -80 -24z m94 -225 c3 -16 9 -30 14 -30 5 0
9 -8 9 -18 0 -10 9 -24 20 -32 12 -8 20 -26 20 -42 0 -15 5 -28 10 -28 6 0 10
-9 10 -20 0 -11 5 -20 10 -20 6 0 10 -8 10 -18 0 -10 9 -24 20 -32 11 -8 20
-22 20 -32 0 -10 5 -18 10 -18 6 0 10 -13 10 -30 0 -16 5 -30 10 -30 6 0 10
-8 10 -18 0 -10 9 -24 20 -32 11 -8 20 -22 20 -32 0 -17 -17 -18 -240 -18
-233 0 -240 1 -240 20 0 11 5 20 10 20 6 0 10 9 10 20 0 11 5 20 10 20 6 0 10
9 10 20 0 11 5 20 10 20 6 0 10 9 10 20 0 11 5 20 10 20 6 0 10 9 10 20 0 11
5 20 10 20 6 0 10 9 10 20 0 11 5 20 10 20 6 0 10 9 10 20 0 11 5 20 10 20 6
0 10 14 10 30 0 17 5 30 10 30 6 0 10 9 10 20 0 11 5 20 10 20 6 0 10 9 10 20
0 11 5 20 10 20 6 0 10 7 10 15 0 20 21 44 38 45 7 0 15 -13 19 -30z"/>
<path d="M10280 870 l0 -570 410 0 c267 0 410 3 410 10 0 6 14 10 30 10 17 0
30 5 30 10 0 6 9 10 20 10 11 0 20 5 20 10 0 6 7 10 15 10 20 0 105 85 105
105 0 8 5 15 10 15 6 0 10 9 10 20 0 11 5 20 10 20 6 0 10 47 10 120 0 73 -4
120 -10 120 -5 0 -10 9 -10 20 0 11 -4 20 -10 20 -5 0 -10 7 -10 16 0 8 -27
42 -61 75 l-61 59 31 29 c19 18 31 39 31 55 0 14 5 26 10 26 6 0 10 43 10 110
0 67 -4 110 -10 110 -5 0 -10 7 -10 15 0 20 -85 105 -105 105 -8 0 -15 5 -15
10 0 6 -18 10 -40 10 -22 0 -40 5 -40 10 0 6 -137 10 -390 10 l-390 0 0 -570z
m780 420 c0 -5 7 -10 16 -10 20 0 44 -24 44 -44 0 -9 5 -16 10 -16 6 0 10 -30
10 -70 0 -40 -4 -70 -10 -70 -5 0 -10 -7 -10 -16 0 -20 -24 -44 -43 -44 -9 0
-17 -5 -19 -12 -3 -8 -86 -11 -309 -10 -167 0 -310 1 -316 1 -10 1 -13 38 -13
151 l0 150 320 0 c207 0 320 -4 320 -10z m20 -440 c0 -5 9 -10 20 -10 11 0 20
-4 20 -10 0 -5 7 -10 16 -10 20 0 44 -24 44 -44 0 -9 5 -16 10 -16 6 0 10 -9
10 -20 0 -11 5 -20 10 -20 6 0 10 -30 10 -69 0 -39 -4 -73 -10 -76 -5 -3 -10
-15 -10 -26 0 -23 -63 -89 -85 -89 -8 0 -15 -4 -15 -10 0 -6 -120 -10 -340
-10 l-340 0 0 210 0 210 330 0 c213 0 330 -4 330 -10z"/>
<path d="M11660 870 l0 -570 440 0 440 0 0 70 0 70 -370 0 -370 0 0 500 0 500
-70 0 -70 0 0 -570z"/>
<path d="M12712 1425 c-19 -22 -16 -1092 3 -1112 11 -10 102 -13 479 -13 l466
0 0 56 c0 35 -5 61 -14 70 -12 12 -79 14 -400 14 l-386 0 0 200 0 200 216 0
c242 0 244 0 244 70 0 70 -2 70 -244 70 l-216 0 0 160 0 160 366 0 c408 0 394
-3 394 70 0 73 22 70 -462 70 -366 -1 -435 -3 -446 -15z m5 -557 c-3 -8 -6 -5
-6 6 -1 11 2 17 5 13 3 -3 4 -12 1 -19z m0 -235 c-2 -16 -4 -5 -4 22 0 28 2
40 4 28 2 -13 2 -35 0 -50z"/>
</g>
</svg>
